<svg xmlns="http://www.w3.org/2000/svg" width="1200" height="700" viewBox="0 0 1200 700">
<style>text{font-family:Segoe UI,Arial,sans-serif;fill:#243447}.title{font-size:25px;font-weight:600}.label{font-size:15px}.legend{font-size:14px;font-weight:600}.grid{stroke:#d9e2ec}.axis{stroke:#718096}.line{fill:none;stroke-width:3}.point{stroke:#f7fafc;stroke-width:2}</style>
<rect width="100%" height="100%" fill="#f7fafc"/><text x="100" y="42" class="title">Hit count vs popularity skewness</text><text x="600" y="630" class="label" text-anchor="middle">Zipf eta</text><text x="20" y="320" class="label" transform="rotate(-90 20 320)">Hit count</text>
<line x1="100" y1="560" x2="1100" y2="560" class="grid"/><text x="90" y="565" class="label" text-anchor="end">0.00</text>
<line x1="100" y1="464" x2="1100" y2="464" class="grid"/><text x="90" y="469" class="label" text-anchor="end">22100.47</text>
<line x1="100" y1="368" x2="1100" y2="368" class="grid"/><text x="90" y="373" class="label" text-anchor="end">44200.94</text>
<line x1="100" y1="272" x2="1100" y2="272" class="grid"/><text x="90" y="277" class="label" text-anchor="end">66301.41</text>
<line x1="100" y1="176" x2="1100" y2="176" class="grid"/><text x="90" y="181" class="label" text-anchor="end">88401.88</text>
<line x1="100" y1="80" x2="1100" y2="80" class="grid"/><text x="90" y="85" class="label" text-anchor="end">110502.35</text>
<line x1="145.5" y1="80" x2="145.5" y2="560" class="grid"/><text x="145.5" y="585" class="label" text-anchor="middle">0.2</text>
<line x1="297.0" y1="80" x2="297.0" y2="560" class="grid"/><text x="297.0" y="585" class="label" text-anchor="middle">0.5</text>
<line x1="549.5" y1="80" x2="549.5" y2="560" class="grid"/><text x="549.5" y="585" class="label" text-anchor="middle">1</text>
<line x1="802.0" y1="80" x2="802.0" y2="560" class="grid"/><text x="802.0" y="585" class="label" text-anchor="middle">1.5</text>
<line x1="1054.5" y1="80" x2="1054.5" y2="560" class="grid"/><text x="1054.5" y="585" class="label" text-anchor="middle">2</text>
<polyline points="145.5,543.9 297.0,534.3 549.5,432.3 802.0,251.0 1054.5,159.7" class="line" stroke="#006d77" stroke-dasharray=""/><line x1="910" y1="19" x2="940" y2="19" stroke="#006d77" stroke-width="4" stroke-dasharray=""/><text x="950" y="24" class="legend">FIFO</text><circle cx="145.5" cy="543.9" r="5" fill="#006d77" class="point"/><circle cx="297.0" cy="534.3" r="5" fill="#006d77" class="point"/><circle cx="549.5" cy="432.3" r="5" fill="#006d77" class="point"/><circle cx="802.0" cy="251.0" r="5" fill="#006d77" class="point"/><circle cx="1054.5" cy="159.7" r="5" fill="#006d77" class="point"/>
<polyline points="145.5,544.0 297.0,533.5 549.5,411.6 802.0,225.8 1054.5,148.6" class="line" stroke="#c44536" stroke-dasharray="10 6"/><line x1="910" y1="41" x2="940" y2="41" stroke="#c44536" stroke-width="4" stroke-dasharray="10 6"/><text x="950" y="46" class="legend">LRU</text><circle cx="145.5" cy="544.0" r="5" fill="#c44536" class="point"/><circle cx="297.0" cy="533.5" r="5" fill="#c44536" class="point"/><circle cx="549.5" cy="411.6" r="5" fill="#c44536" class="point"/><circle cx="802.0" cy="225.8" r="5" fill="#c44536" class="point"/><circle cx="1054.5" cy="148.6" r="5" fill="#c44536" class="point"/>
<polyline points="145.5,542.2 297.0,513.2 549.5,354.6 802.0,197.7 1054.5,142.6" class="line" stroke="#386641" stroke-dasharray="3 5"/><line x1="910" y1="63" x2="940" y2="63" stroke="#386641" stroke-width="4" stroke-dasharray="3 5"/><text x="950" y="68" class="legend">LFU</text><circle cx="145.5" cy="542.2" r="5" fill="#386641" class="point"/><circle cx="297.0" cy="513.2" r="5" fill="#386641" class="point"/><circle cx="549.5" cy="354.6" r="5" fill="#386641" class="point"/><circle cx="802.0" cy="197.7" r="5" fill="#386641" class="point"/><circle cx="1054.5" cy="142.6" r="5" fill="#386641" class="point"/>
<polyline points="145.5,541.5 297.0,508.8 549.5,360.8 802.0,204.3 1054.5,143.8" class="line" stroke="#6a4c93" stroke-dasharray="14 5 3 5"/><line x1="910" y1="85" x2="940" y2="85" stroke="#6a4c93" stroke-width="4" stroke-dasharray="14 5 3 5"/><text x="950" y="90" class="legend">SIEVE</text><circle cx="145.5" cy="541.5" r="5" fill="#6a4c93" class="point"/><circle cx="297.0" cy="508.8" r="5" fill="#6a4c93" class="point"/><circle cx="549.5" cy="360.8" r="5" fill="#6a4c93" class="point"/><circle cx="802.0" cy="204.3" r="5" fill="#6a4c93" class="point"/><circle cx="1054.5" cy="143.8" r="5" fill="#6a4c93" class="point"/>
<line x1="100" y1="80" x2="100" y2="560" class="axis"/><line x1="100" y1="560" x2="1100" y2="560" class="axis"/></svg>
