<svg xmlns="http://www.w3.org/2000/svg" width="1200" height="700" viewBox="0 0 1200 700">
<style>text{font-family:Segoe UI,Arial,sans-serif;fill:#243447}.title{font-size:25px;font-weight:600}.label{font-size:15px}.legend{font-size:14px;font-weight:600}.grid{stroke:#d9e2ec}.axis{stroke:#718096}.line{fill:none;stroke-width:3}.point{stroke:#f7fafc;stroke-width:2}</style>
<rect width="100%" height="100%" fill="#f7fafc"/><text x="100" y="42" class="title">Total utility vs cache size</text><text x="600" y="630" class="label" text-anchor="middle">Cache size (MiB)</text><text x="20" y="320" class="label" transform="rotate(-90 20 320)">Total utility</text>
<line x1="100" y1="560" x2="1100" y2="560" class="grid"/><text x="90" y="565" class="label" text-anchor="end">0.00</text>
<line x1="100" y1="464" x2="1100" y2="464" class="grid"/><text x="90" y="469" class="label" text-anchor="end">86679.11</text>
<line x1="100" y1="368" x2="1100" y2="368" class="grid"/><text x="90" y="373" class="label" text-anchor="end">173358.22</text>
<line x1="100" y1="272" x2="1100" y2="272" class="grid"/><text x="90" y="277" class="label" text-anchor="end">260037.33</text>
<line x1="100" y1="176" x2="1100" y2="176" class="grid"/><text x="90" y="181" class="label" text-anchor="end">346716.44</text>
<line x1="100" y1="80" x2="1100" y2="80" class="grid"/><text x="90" y="85" class="label" text-anchor="end">433395.55</text>
<line x1="145.5" y1="80" x2="145.5" y2="560" class="grid"/><text x="145.5" y="585" class="label" text-anchor="middle">1e+03</text>
<line x1="219.7" y1="80" x2="219.7" y2="560" class="grid"/><text x="219.7" y="585" class="label" text-anchor="middle">5e+03</text>
<line x1="312.4" y1="80" x2="312.4" y2="560" class="grid"/><text x="312.4" y="585" class="label" text-anchor="middle">1e+04</text>
<line x1="498.0" y1="80" x2="498.0" y2="560" class="grid"/><text x="498.0" y="585" class="label" text-anchor="middle">2e+04</text>
<line x1="1054.5" y1="80" x2="1054.5" y2="560" class="grid"/><text x="1054.5" y="585" class="label" text-anchor="middle">5e+04</text>
<polyline points="145.5,518.1 219.7,423.4 312.4,367.7 498.0,307.3 1054.5,224.0" class="line" stroke="#006d77" stroke-dasharray=""/><line x1="910" y1="19" x2="940" y2="19" stroke="#006d77" stroke-width="4" stroke-dasharray=""/><text x="950" y="24" class="legend">FIFO</text><circle cx="145.5" cy="518.1" r="5" fill="#006d77" class="point"/><circle cx="219.7" cy="423.4" r="5" fill="#006d77" class="point"/><circle cx="312.4" cy="367.7" r="5" fill="#006d77" class="point"/><circle cx="498.0" cy="307.3" r="5" fill="#006d77" class="point"/><circle cx="1054.5" cy="224.0" r="5" fill="#006d77" class="point"/>
<polyline points="145.5,517.4 219.7,401.1 312.4,337.5 498.0,276.2 1054.5,193.1" class="line" stroke="#c44536" stroke-dasharray="10 6"/><line x1="910" y1="41" x2="940" y2="41" stroke="#c44536" stroke-width="4" stroke-dasharray="10 6"/><text x="950" y="46" class="legend">LRU</text><circle cx="145.5" cy="517.4" r="5" fill="#c44536" class="point"/><circle cx="219.7" cy="401.1" r="5" fill="#c44536" class="point"/><circle cx="312.4" cy="337.5" r="5" fill="#c44536" class="point"/><circle cx="498.0" cy="276.2" r="5" fill="#c44536" class="point"/><circle cx="1054.5" cy="193.1" r="5" fill="#c44536" class="point"/>
<polyline points="145.5,516.0 219.7,331.2 312.4,263.5 498.0,216.2 1054.5,142.6" class="line" stroke="#386641" stroke-dasharray="3 5"/><line x1="910" y1="63" x2="940" y2="63" stroke="#386641" stroke-width="4" stroke-dasharray="3 5"/><text x="950" y="68" class="legend">LFU</text><circle cx="145.5" cy="516.0" r="5" fill="#386641" class="point"/><circle cx="219.7" cy="331.2" r="5" fill="#386641" class="point"/><circle cx="312.4" cy="263.5" r="5" fill="#386641" class="point"/><circle cx="498.0" cy="216.2" r="5" fill="#386641" class="point"/><circle cx="1054.5" cy="142.6" r="5" fill="#386641" class="point"/>
<polyline points="145.5,516.9 219.7,344.7 312.4,278.9 498.0,216.1 1054.5,143.6" class="line" stroke="#6a4c93" stroke-dasharray="14 5 3 5"/><line x1="910" y1="85" x2="940" y2="85" stroke="#6a4c93" stroke-width="4" stroke-dasharray="14 5 3 5"/><text x="950" y="90" class="legend">SIEVE</text><circle cx="145.5" cy="516.9" r="5" fill="#6a4c93" class="point"/><circle cx="219.7" cy="344.7" r="5" fill="#6a4c93" class="point"/><circle cx="312.4" cy="278.9" r="5" fill="#6a4c93" class="point"/><circle cx="498.0" cy="216.1" r="5" fill="#6a4c93" class="point"/><circle cx="1054.5" cy="143.6" r="5" fill="#6a4c93" class="point"/>
<line x1="100" y1="80" x2="100" y2="560" class="axis"/><line x1="100" y1="560" x2="1100" y2="560" class="axis"/></svg>
