<svg xmlns="http://www.w3.org/2000/svg" width="1200" height="700" viewBox="0 0 1200 700">
<style>text{font-family:Segoe UI,Arial,sans-serif;fill:#243447}.title{font-size:25px;font-weight:600}.label{font-size:15px}.legend{font-size:14px;font-weight:600}.grid{stroke:#d9e2ec}.axis{stroke:#718096}.line{fill:none;stroke-width:3}.point{stroke:#f7fafc;stroke-width:2}</style>
<rect width="100%" height="100%" fill="#f7fafc"/><text x="100" y="42" class="title">Total utility vs popular-file importance (Fig. 5c)</text><text x="600" y="630" class="label" text-anchor="middle">Popular file importance</text><text x="20" y="320" class="label" transform="rotate(-90 20 320)">Total utility</text>
<line x1="100" y1="560" x2="1100" y2="560" class="grid"/><text x="90" y="565" class="label" text-anchor="end">0.00</text>
<line x1="100" y1="464" x2="1100" y2="464" class="grid"/><text x="90" y="469" class="label" text-anchor="end">51.64</text>
<line x1="100" y1="368" x2="1100" y2="368" class="grid"/><text x="90" y="373" class="label" text-anchor="end">103.29</text>
<line x1="100" y1="272" x2="1100" y2="272" class="grid"/><text x="90" y="277" class="label" text-anchor="end">154.93</text>
<line x1="100" y1="176" x2="1100" y2="176" class="grid"/><text x="90" y="181" class="label" text-anchor="end">206.58</text>
<line x1="100" y1="80" x2="1100" y2="80" class="grid"/><text x="90" y="85" class="label" text-anchor="end">258.22</text>
<line x1="145.5" y1="80" x2="145.5" y2="560" class="grid"/><text x="145.5" y="585" class="label" text-anchor="middle">0.1</text>
<line x1="372.7" y1="80" x2="372.7" y2="560" class="grid"/><text x="372.7" y="585" class="label" text-anchor="middle">0.3</text>
<line x1="600.0" y1="80" x2="600.0" y2="560" class="grid"/><text x="600.0" y="585" class="label" text-anchor="middle">0.5</text>
<line x1="827.3" y1="80" x2="827.3" y2="560" class="grid"/><text x="827.3" y="585" class="label" text-anchor="middle">0.7</text>
<line x1="1054.5" y1="80" x2="1054.5" y2="560" class="grid"/><text x="1054.5" y="585" class="label" text-anchor="middle">0.9</text>
<polyline points="145.5,367.5 372.7,328.6 600.0,289.7 827.3,250.9 1054.5,212.0" class="line" stroke="#006d77" stroke-dasharray=""/><line x1="910" y1="19" x2="940" y2="19" stroke="#006d77" stroke-width="4" stroke-dasharray=""/><text x="950" y="24" class="legend">FIFO</text><circle cx="145.5" cy="367.5" r="5" fill="#006d77" class="point"/><circle cx="372.7" cy="328.6" r="5" fill="#006d77" class="point"/><circle cx="600.0" cy="289.7" r="5" fill="#006d77" class="point"/><circle cx="827.3" cy="250.9" r="5" fill="#006d77" class="point"/><circle cx="1054.5" cy="212.0" r="5" fill="#006d77" class="point"/>
<polyline points="145.5,351.8 372.7,309.4 600.0,267.0 827.3,224.7 1054.5,182.3" class="line" stroke="#c44536" stroke-dasharray="10 6"/><line x1="910" y1="41" x2="940" y2="41" stroke="#c44536" stroke-width="4" stroke-dasharray="10 6"/><text x="950" y="46" class="legend">LRU</text><circle cx="145.5" cy="351.8" r="5" fill="#c44536" class="point"/><circle cx="372.7" cy="309.4" r="5" fill="#c44536" class="point"/><circle cx="600.0" cy="267.0" r="5" fill="#c44536" class="point"/><circle cx="827.3" cy="224.7" r="5" fill="#c44536" class="point"/><circle cx="1054.5" cy="182.3" r="5" fill="#c44536" class="point"/>
<polyline points="145.5,312.6 372.7,270.1 600.0,227.6 827.3,185.1 1054.5,142.6" class="line" stroke="#386641" stroke-dasharray="3 5"/><line x1="910" y1="63" x2="940" y2="63" stroke="#386641" stroke-width="4" stroke-dasharray="3 5"/><text x="950" y="68" class="legend">LFU</text><circle cx="145.5" cy="312.6" r="5" fill="#386641" class="point"/><circle cx="372.7" cy="270.1" r="5" fill="#386641" class="point"/><circle cx="600.0" cy="227.6" r="5" fill="#386641" class="point"/><circle cx="827.3" cy="185.1" r="5" fill="#386641" class="point"/><circle cx="1054.5" cy="142.6" r="5" fill="#386641" class="point"/>
<polyline points="145.5,331.0 372.7,288.6 600.0,246.1 827.3,203.6 1054.5,161.2" class="line" stroke="#6a4c93" stroke-dasharray="14 5 3 5"/><line x1="910" y1="85" x2="940" y2="85" stroke="#6a4c93" stroke-width="4" stroke-dasharray="14 5 3 5"/><text x="950" y="90" class="legend">SIEVE</text><circle cx="145.5" cy="331.0" r="5" fill="#6a4c93" class="point"/><circle cx="372.7" cy="288.6" r="5" fill="#6a4c93" class="point"/><circle cx="600.0" cy="246.1" r="5" fill="#6a4c93" class="point"/><circle cx="827.3" cy="203.6" r="5" fill="#6a4c93" class="point"/><circle cx="1054.5" cy="161.2" r="5" fill="#6a4c93" class="point"/>
<polyline points="145.5,448.1 372.7,422.0 600.0,395.8 827.3,369.7 1054.5,343.5" class="line" stroke="#e76f51" stroke-dasharray="6 4 2 4"/><line x1="910" y1="107" x2="940" y2="107" stroke="#e76f51" stroke-width="4" stroke-dasharray="6 4 2 4"/><text x="950" y="112" class="legend">CTD</text><circle cx="145.5" cy="448.1" r="5" fill="#e76f51" class="point"/><circle cx="372.7" cy="422.0" r="5" fill="#e76f51" class="point"/><circle cx="600.0" cy="395.8" r="5" fill="#e76f51" class="point"/><circle cx="827.3" cy="369.7" r="5" fill="#e76f51" class="point"/><circle cx="1054.5" cy="343.5" r="5" fill="#e76f51" class="point"/>
<polyline points="145.5,357.5 372.7,325.0 600.0,282.9 827.3,231.3 1054.5,181.6" class="line" stroke="#2a9d8f" stroke-dasharray="8 4"/><line x1="910" y1="129" x2="940" y2="129" stroke="#2a9d8f" stroke-width="4" stroke-dasharray="8 4"/><text x="950" y="134" class="legend">SMDP-DDQL</text><circle cx="145.5" cy="357.5" r="5" fill="#2a9d8f" class="point"/><circle cx="372.7" cy="325.0" r="5" fill="#2a9d8f" class="point"/><circle cx="600.0" cy="282.9" r="5" fill="#2a9d8f" class="point"/><circle cx="827.3" cy="231.3" r="5" fill="#2a9d8f" class="point"/><circle cx="1054.5" cy="181.6" r="5" fill="#2a9d8f" class="point"/>
<line x1="100" y1="80" x2="100" y2="560" class="axis"/><line x1="100" y1="560" x2="1100" y2="560" class="axis"/></svg>
